<?xml version="1.0" encoding="iso-8859-1"?>
<!-- Uploaded to: SVG Repo, www.svgrepo.com, Generator: SVG Repo Mixer Tools -->
<svg height="800px" width="800px" version="1.1" id="Layer_1" xmlns="http://www.w3.org/2000/svg" xmlns:xlink="http://www.w3.org/1999/xlink" 
	 viewBox="0 0 512.002 512.002" xml:space="preserve">
<path style="fill:#7F8499;" d="M333.121,0.193c-84.793,3.975-155.004,71.672-161.876,156.28
	c-3.431,42.241,8.616,81.497,30.985,112.911c5.109,7.175,4.401,16.933-1.826,23.161l-43.754,43.754l19.053,19.053l43.754-43.754
	c6.228-6.228,15.987-6.934,23.161-1.826c31.414,22.367,70.669,34.416,112.911,30.985c84.607-6.873,152.305-77.083,156.28-161.876
	C516.53,78.137,433.864-4.529,333.121,0.193z"/>
<circle style="fill:#F1F4FB;" cx="341.334" cy="170.667" r="134.737"/>
<path style="fill:#E4EAF8;" d="M374.43,222.562c-42.65-8.194-76.797-42.341-84.991-84.991c-2.902-15.107-2.542-29.72,0.412-43.371
	c1.776-8.204-7.853-13.817-14.49-8.677c-29.47,22.827-46.797,60.55-40.546,101.932c6.928,45.855,43.871,82.8,89.727,89.729
	c41.383,6.253,79.107-11.074,101.934-40.546c5.14-6.637-0.472-16.266-8.677-14.49C404.15,225.104,389.537,225.464,374.43,222.562z"
	/>
<path style="fill:#9B735A;" d="M191.263,358.847L46.003,504.108c-10.524,10.524-27.586,10.524-38.109,0l0,0
	c-10.524-10.524-10.524-27.586,0-38.109l145.261-145.261c3.508-3.508,9.196-3.508,12.703,0l25.406,25.406
	C194.771,349.651,194.771,355.339,191.263,358.847z"/>
<path style="fill:#8C5F50;" d="M25.858,483.963l145.261-145.261c3.509-3.508,9.195-3.508,12.703,0l-17.965-17.965
	c-3.509-3.508-9.195-3.508-12.703,0L7.893,465.998c-10.524,10.524-10.524,27.585,0,38.109c3.267,3.267,7.194,5.397,11.33,6.636
	C16.472,501.556,18.602,491.219,25.858,483.963z"/>
<path style="fill:#FFFFFF;" d="M436.422,152.746c-3.912,0-7.517-2.588-8.64-6.544c-8.403-29.798-32.14-53.544-61.939-61.982
	c-4.772-1.351-7.544-6.316-6.193-11.088c1.342-4.781,6.342-7.579,11.088-6.193c35.764,10.123,64.246,38.622,74.342,74.386
	c1.342,4.772-1.438,9.737-6.21,11.088C438.054,152.64,437.238,152.746,436.422,152.746z"/>
<path style="fill:#AFB9D2;" d="M400.469,116.772H295.767l-1.544-5.158c-2.275-7.6-9.269-12.807-17.203-12.807h-11.29
	c-4.961,0-8.982,4.022-8.982,8.982l0,0c0,4.961,4.022,8.982,8.982,8.982h11.281l21.182,70.614
	c3.421,11.402,13.915,19.21,25.819,19.21h58.491c14.883,0,26.947-12.065,26.947-26.947v-53.895
	C409.452,120.794,405.43,116.772,400.469,116.772z M391.487,179.649c0,4.952-4.026,8.982-8.982,8.982h-58.491
	c-4.001,0-7.457-2.575-8.605-6.399l-14.246-47.496h90.324v44.912H391.487z"/>
<g>
	<circle style="fill:#7F8499;" cx="306.157" cy="229.053" r="13.474"/>
	<circle style="fill:#7F8499;" cx="386.999" cy="229.053" r="13.474"/>
</g>
</svg>