<?xml version="1.0" encoding="iso-8859-1"?>
<!-- Uploaded to: SVG Repo, www.svgrepo.com, Generator: SVG Repo Mixer Tools -->
<svg height="800px" width="800px" version="1.1" id="Layer_1" xmlns="http://www.w3.org/2000/svg" xmlns:xlink="http://www.w3.org/1999/xlink" 
	 viewBox="0 0 512 512" xml:space="preserve">
<g>
	<path style="fill:#E8EDEE;" d="M379.923,512H149.726c-14.433,0-26.138-11.705-26.138-26.147V26.147
		C123.588,11.705,135.293,0,149.726,0h230.197c14.442,0,26.147,11.705,26.147,26.147v459.705
		C406.07,500.295,394.365,512,379.923,512"/>
	<polygon style="fill:#38454F;" points="123.588,441.379 406.071,441.379 406.071,52.966 123.588,52.966 	"/>
	<g>
		<path style="fill:#B0B6BB;" d="M300.136,35.31h-44.138c-4.882,0-8.828-3.955-8.828-8.828s3.946-8.828,8.828-8.828h44.138
			c4.882,0,8.828,3.955,8.828,8.828S305.017,35.31,300.136,35.31"/>
		<path style="fill:#B0B6BB;" d="M229.515,35.31h-8.828c-4.882,0-8.828-3.955-8.828-8.828s3.946-8.828,8.828-8.828h8.828
			c4.882,0,8.828,3.955,8.828,8.828S234.397,35.31,229.515,35.31"/>
		<path style="fill:#B0B6BB;" d="M114.756,97.103c-4.882,0-8.828-3.955-8.828-8.828v-8.828c0-4.873,3.946-8.828,8.828-8.828
			c4.882,0,8.828,3.955,8.828,8.828v8.828C123.584,93.149,119.638,97.103,114.756,97.103"/>
		<path style="fill:#B0B6BB;" d="M114.756,132.414c-4.882,0-8.828-3.955-8.828-8.828v-8.828c0-4.873,3.946-8.828,8.828-8.828
			c4.882,0,8.828,3.955,8.828,8.828v8.828C123.584,128.459,119.638,132.414,114.756,132.414"/>
		<path style="fill:#B0B6BB;" d="M114.756,167.724c-4.882,0-8.828-3.955-8.828-8.828v-8.828c0-4.873,3.946-8.828,8.828-8.828
			c4.882,0,8.828,3.955,8.828,8.828v8.828C123.584,163.769,119.638,167.724,114.756,167.724"/>
		<path style="fill:#B0B6BB;" d="M291.308,476.69c0,14.627-11.855,26.483-26.483,26.483c-14.627,0-26.483-11.855-26.483-26.483
			c0-14.627,11.855-26.483,26.483-26.483C279.453,450.207,291.308,462.062,291.308,476.69"/>
	</g>
	<g>
		<path style="fill:#546A79;" d="M209.007,256H320.64l28.257-70.621H180.759L209.007,256z M326.617,273.655H203.031
			c-3.61,0-6.85-2.198-8.192-5.544l-35.31-88.276c-1.095-2.728-0.75-5.809,0.883-8.236c1.651-2.419,4.378-3.875,7.309-3.875h194.207
			c2.931,0,5.667,1.457,7.309,3.875c1.642,2.428,1.977,5.508,0.892,8.236l-35.31,88.276
			C333.476,271.457,330.227,273.655,326.617,273.655L326.617,273.655z"/>
		<path style="fill:#546A79;" d="M211.851,185.379c-1.324,0-2.675-0.3-3.937-0.927c-4.361-2.189-6.135-7.486-3.955-11.847
			l26.483-52.966c2.189-4.361,7.486-6.135,11.847-3.955c4.361,2.189,6.135,7.486,3.955,11.847l-26.483,52.966
			C218.207,183.596,215.091,185.379,211.851,185.379"/>
		<path style="fill:#546A79;" d="M317.8,185.379c-3.24,0-6.356-1.783-7.91-4.882l-26.483-52.966
			c-2.18-4.361-0.406-9.657,3.955-11.847c4.352-2.18,9.657-0.406,11.847,3.955l26.483,52.966c2.18,4.361,0.406,9.657-3.955,11.847
			C320.474,185.079,319.124,185.379,317.8,185.379"/>
		<path style="fill:#546A79;" d="M247.17,326.621h-79.448c-4.882,0-8.828-3.955-8.828-8.828c0-4.873,3.946-8.828,8.828-8.828h79.448
			c4.882,0,8.828,3.955,8.828,8.828C255.998,322.666,252.052,326.621,247.17,326.621"/>
		<path style="fill:#546A79;" d="M361.929,326.621h-79.448c-4.882,0-8.828-3.955-8.828-8.828c0-4.873,3.946-8.828,8.828-8.828
			h79.448c4.882,0,8.828,3.955,8.828,8.828C370.756,322.666,366.81,326.621,361.929,326.621"/>
		<path style="fill:#546A79;" d="M203.032,379.586h-35.31c-4.882,0-8.828-3.955-8.828-8.828c0-4.873,3.946-8.828,8.828-8.828h35.31
			c4.882,0,8.828,3.955,8.828,8.828C211.86,375.631,207.914,379.586,203.032,379.586"/>
		<path style="fill:#546A79;" d="M361.929,379.586H238.343c-4.882,0-8.828-3.955-8.828-8.828c0-4.873,3.946-8.828,8.828-8.828
			h123.586c4.882,0,8.828,3.955,8.828,8.828C370.756,375.631,366.81,379.586,361.929,379.586"/>
	</g>
</g>
</svg>