<!DOCTYPE svg PUBLIC "-//W3C//DTD SVG 1.1//EN" "http://www.w3.org/Graphics/SVG/1.1/DTD/svg11.dtd">
<!-- Uploaded to: SVG Repo, www.svgrepo.com, Transformed by: SVG Repo Mixer Tools -->
<svg fill="#374251" version="1.1" xmlns="http://www.w3.org/2000/svg" xmlns:xlink="http://www.w3.org/1999/xlink" viewBox="-12.8 -12.8 153.60 153.60" xml:space="preserve" width="800px" height="800px" transform="matrix(1, 0, 0, 1, 0, 0)" stroke="#374251">
<g id="SVGRepo_bgCarrier" stroke-width="0" transform="translate(0,0), scale(1)">
<path transform="translate(-12.8, -12.8), scale(4.8)" d="M16,30.335202769425354C20.355864895845837,30.89650205094356,24.686726118629263,28.543751108626097,27.356281751587446,25.056332493541845C29.966701713555338,21.64616675053897,30.516062124393166,17.082946258460687,29.296441693840805,12.965173950771725C28.16652259127986,9.15025787204795,25.165636193718775,6.042986047151573,21.37074693302069,4.847529078007282C18.082078920699804,3.8115407198627542,15.075791923105262,6.1437307627822975,11.899276800693428,7.484760535219337C8.352325151716233,8.982177540765196,3.350255217918896,9.167051904021212,2.3393045451661756,12.882035406802995C1.3177419702465145,16.636014918535423,5.405291568165583,19.47307368177189,7.803220356119947,22.536713640527328C10.248768882534788,25.661193493405502,12.06478244633082,29.828108348843372,16,30.335202769425354" fill="#70dbff" strokewidth="0"/>
</g>
<g id="SVGRepo_tracerCarrier" stroke-linecap="round" stroke-linejoin="round" stroke="#CCCCCC" stroke-width="1.536"/>
<g id="SVGRepo_iconCarrier"> <g id="_x31_"> </g> <g id="svg3790"> <g> <rect x="54.9" y="63.2" width="61.1" height="6.1"/> <polygon points="92.6,34.4 100.2,55.6 87.1,55.6 87.1,59.6 104.1,59.6 104.1,58.3 104.1,55.6 94.3,28.5 100.4,5.3 96,4 84.3,47.4 88.8,48.6 "/> <path d="M66.6,81.8c-1.2-2.7-4-4.3-6.6-4.3H39.6v-8.9h0.3c-4.4,0-8.1-3.7-8.1-8.1V47.5c0-0.9,0.5-1.4,1.4-1.4 c0.9,0,1.4,0.5,1.4,1.4v13.1c0,2.9,2.5,5.1,5.1,5.1h12.3v-5.3h21.7v-0.1c0-2.7-2.1-4.9-4.9-4.9H45V36.9c0-2.7-1.8-4.7-4.6-5.1 c-0.9-0.1-1.7-0.1-2.9,0c-10.1,0.7-20.3,9-21.7,19.7C14.7,61,14.5,71.9,15.5,81c0.9,5.6,5.2,10.3,11.3,11c0.6,0.1,1.2,0.1,1.9,0.1 h26.5L70,118.9c1.7,3.7,6,5.1,9.7,3.5c3.7-1.6,5.3-6,3.6-9.8L66.6,81.8z"/> <rect x="15.7" y="95.9" width="37.3" height="5.6"/> <path d="M120.5,101.1l-2.1-2.1l-3.8,3.8h-14.1l-0.9-1.2l-0.7,0.2l-6.2,2.3l0,0l0,0l-0.7,1.6c-0.3,0.7,1.3,14.2,1.3,14.2h3.3 l1.6-7.7l11.9,0l2.4,7.8h2.9l0.2-8.8c0.9-0.9,1.2-5.2,0.8-5.9L120.5,101.1z"/> <polygon points="92.3,102.6 99,100.1 95.2,89 93.5,93.6 87.1,96.3 86.7,95.4 84.5,96.4 87.2,102.2 92.1,101 "/> <circle cx="49.1" cy="19.4" r="12.5"/> </g> </g> </g>
</svg>