
<svg width="350px" height="350px" viewBox="0 0 24 24" fill="none" xmlns="http://www.w3.org/2000/svg">
    <g id="SVGRepo_bgCarrier" stroke-width="0"></g>
    <g id="SVGRepo_tracerCarrier" stroke-linecap="round" stroke-linejoin="round"></g>
    <g id="SVGRepo_iconCarrier">
        <path fill-rule="evenodd" clip-rule="evenodd"
            d="M15.55 5.5C15.7816 4.35888 16.7905 3.5 18 3.5C19.3807 3.5 20.5 4.61929 20.5 6C20.5 7.38071 19.3807 8.5 18 8.5C16.7905 8.5 15.7816 7.64112 15.55 6.5H12.5V18C12.5 18.2761 12.2761 18.5 12 18.5H8.44999C8.21836 19.6411 7.20948 20.5 6 20.5C4.61929 20.5 3.5 19.3807 3.5 18C3.5 16.6193 4.61929 15.5 6 15.5C7.20948 15.5 8.21836 16.3589 8.44999 17.5H11.5V6C11.5 5.72386 11.7239 5.5 12 5.5H15.55ZM18 4.5C17.1716 4.5 16.5 5.17157 16.5 6C16.5 6.82843 17.1716 7.5 18 7.5C18.8284 7.5 19.5 6.82843 19.5 6C19.5 5.17157 18.8284 4.5 18 4.5ZM6 16.5C5.17157 16.5 4.5 17.1716 4.5 18C4.5 18.8284 5.17157 19.5 6 19.5C6.82843 19.5 7.5 18.8284 7.5 18C7.5 17.1716 6.82843 16.5 6 16.5Z"
            fill="rgba(2, 132, 199, 0.4)"></path>
    </g>
</svg>